<svg width="88" height="25" viewBox="0 0 88 25" fill="none" xmlns="http://www.w3.org/2000/svg">
<path fill-rule="evenodd" clip-rule="evenodd" d="M15.7002 18.9808C15.5001 22.2759 12.4614 24.8596 8.3072 24.8596C4.28608 24.8596 1.01384 21.6544 0.907541 17.6602C0.904602 17.5497 0.994447 17.4596 1.10494 17.4596H4.50601C4.6165 17.4596 4.70552 17.5494 4.71113 17.6597C4.8019 19.4443 6.11019 20.8596 8.3072 20.8596C10.8619 20.8596 11.6635 19.4433 11.7063 18.7384C11.9388 14.9111 0.904979 18.8596 0.914766 10.7384C1.11485 7.44332 4.15353 4.85962 8.30774 4.85962C12.3289 4.85962 15.6011 8.06488 15.7074 12.0591C15.7103 12.1695 15.6205 12.2596 15.51 12.2596H12.1089C11.9984 12.2596 11.9094 12.1699 11.9038 12.0596C11.813 10.2749 10.5048 8.85962 8.30774 8.85962C5.75303 8.85962 4.95148 10.2759 4.90867 10.9808C4.6765 14.803 15.7101 10.8596 15.7002 18.9808Z" fill="white"/>
<path fill-rule="evenodd" clip-rule="evenodd" d="M38.5074 0.859619C38.6179 0.859619 38.7074 0.949162 38.7074 1.05962V14.8596C38.7074 20.1436 34.6091 24.4705 29.4177 24.8348C29.3037 24.8428 29.2074 24.7516 29.2074 24.6372V21.0233C29.2074 20.9192 29.2876 20.8328 29.391 20.8211C32.3828 20.4818 34.7074 17.9422 34.7074 14.8596C34.7074 11.7771 32.3828 9.23745 29.391 8.89814C29.2876 8.88641 29.2074 8.80006 29.2074 8.69598V5.08199C29.2074 4.96767 29.3031 4.87642 29.4172 4.88442C31.2533 5.01318 32.9528 5.63766 34.3826 6.62489C34.5182 6.71857 34.7074 6.6234 34.7074 6.45853V1.05962C34.7074 0.949162 34.7969 0.859619 34.9074 0.859619H38.5074Z" fill="white"/>
<path fill-rule="evenodd" clip-rule="evenodd" d="M58.9072 16.2596V5.05962C58.9072 4.94916 58.8176 4.85962 58.7072 4.85962H55.1072C54.9967 4.85962 54.9072 4.94916 54.9072 5.05962V16.2596C54.9072 18.8001 52.8477 20.8596 50.3072 20.8596C47.7666 20.8596 45.7072 18.8001 45.7072 16.2596V5.05962C45.7072 4.94916 45.6176 4.85962 45.5072 4.85962H41.9072C41.7967 4.85962 41.7072 4.94916 41.7072 5.05962V16.2596C41.7072 21.0093 45.5575 24.8596 50.3072 24.8596C55.0568 24.8596 58.9072 21.0093 58.9072 16.2596Z" fill="white"/>
<path d="M23.2025 12.4697C22.8842 13.2019 22.7078 14.01 22.7078 14.8593C22.7078 15.7086 22.8842 16.5166 23.2025 17.2488C23.2439 17.3442 23.2091 17.4565 23.119 17.5085L19.9884 19.316C19.8894 19.3731 19.7626 19.3359 19.7125 19.2331C19.0689 17.9119 18.7078 16.4278 18.7078 14.8593C18.7078 13.2908 19.0689 11.8066 19.7125 10.4854C19.7626 10.3826 19.8894 10.3454 19.9884 10.4026L23.119 12.21C23.2091 12.262 23.2439 12.3743 23.2025 12.4697Z" fill="white"/>
<path d="M20.4232 9.25663C22.0968 6.787 24.8456 5.10539 27.9974 4.88428C28.1114 4.87628 28.2073 4.96752 28.2073 5.08184V8.69583C28.2073 8.79991 28.1274 8.88623 28.024 8.89796C26.3309 9.08993 24.8516 9.98651 23.8862 11.2874C23.8242 11.3708 23.7097 11.3967 23.6197 11.3447L20.4892 9.53735C20.3901 9.48012 20.359 9.35139 20.4232 9.25663Z" fill="white"/>
<path d="M23.8862 18.4318C24.8516 19.7327 26.3309 20.6293 28.024 20.8213C28.1274 20.833 28.2073 20.9193 28.2073 21.0234V24.6374C28.2073 24.7517 28.1114 24.843 27.9974 24.835C24.8456 24.6139 22.0968 22.9322 20.4232 20.4626C20.359 20.3678 20.3901 20.2391 20.4892 20.1819L23.6197 18.3745C23.7097 18.3225 23.8242 18.3484 23.8862 18.4318Z" fill="white"/>
<path fill-rule="evenodd" clip-rule="evenodd" d="M83.1495 8.06599C83.2986 8.22256 83.5527 8.22869 83.7502 8.16462C83.7695 8.15838 83.7907 8.16642 83.8003 8.18424C83.8855 8.34257 83.9854 8.49177 84.0983 8.62997C84.1137 8.64871 84.1101 8.67667 84.0896 8.68952C83.8893 8.81501 83.6381 8.85975 83.4056 8.85975C83.03 8.85975 82.7398 8.76373 82.535 8.57169C82.3301 8.37538 82.2277 8.08732 82.2277 7.70751V5.53957C82.2277 5.51748 82.2098 5.49957 82.1877 5.49957H81.8677C81.8456 5.49957 81.8277 5.48166 81.8277 5.45957V4.89957C81.8277 4.87748 81.8456 4.85957 81.8677 4.85957H82.1877C82.2098 4.85957 82.2277 4.84166 82.2277 4.81957V4.09957C82.2277 4.07748 82.2456 4.05957 82.2677 4.05957H82.9879C83.01 4.05957 83.0279 4.07748 83.0279 4.09957V4.81957C83.0279 4.84166 83.0458 4.85957 83.0679 4.85957H83.7877C83.8098 4.85957 83.8277 4.87748 83.8277 4.89957V5.45957C83.8277 5.48166 83.8098 5.49957 83.7877 5.49957H83.0679C83.0458 5.49957 83.0279 5.51748 83.0279 5.53957V7.68831C83.0279 7.85048 83.0684 7.97637 83.1495 8.06599ZM67.8653 7.68381C67.8253 8.34283 67.2178 8.85957 66.3872 8.85957C65.5832 8.85957 64.929 8.21852 64.9077 7.41968C64.9071 7.39759 64.9251 7.37957 64.9472 7.37957H65.6272C65.6493 7.37957 65.6671 7.39752 65.6682 7.41958C65.6864 7.77651 65.9479 8.05957 66.3872 8.05957C66.898 8.05957 67.0582 7.77631 67.0668 7.63533C67.0858 7.32292 66.7295 7.26956 66.3013 7.20541C65.6804 7.11238 64.908 6.99668 64.9092 6.03533C64.9492 5.37631 65.5567 4.85957 66.3873 4.85957C67.1913 4.85957 67.8455 5.50062 67.8668 6.29946C67.8674 6.32155 67.8494 6.33957 67.8273 6.33957H67.1473C67.1252 6.33957 67.1074 6.32162 67.1063 6.29956C67.0881 5.94263 66.8266 5.65957 66.3873 5.65957C65.8765 5.65957 65.7163 5.94283 65.7077 6.08381C65.6888 6.39567 66.0447 6.44904 66.4727 6.51321C67.0938 6.60634 67.8665 6.7222 67.8653 7.68381ZM70.1677 5.65957C69.7811 5.65957 69.4677 5.97297 69.4677 6.35957V8.81957C69.4677 8.84166 69.4498 8.85957 69.4277 8.85957H68.7077C68.6856 8.85957 68.6677 8.84166 68.6677 8.81957V6.35957C68.6677 5.53114 69.3393 4.85957 70.1677 4.85957C70.5868 4.85957 70.9658 5.03145 71.2379 5.30856C71.2543 5.32517 71.2812 5.32517 71.2975 5.30856C71.5697 5.03145 71.9486 4.85957 72.3677 4.85957C73.1961 4.85957 73.8677 5.53114 73.8677 6.35957V8.81957C73.8677 8.84166 73.8498 8.85957 73.8277 8.85957H73.1077C73.0856 8.85957 73.0677 8.84166 73.0677 8.81957V6.35957C73.0677 5.97297 72.7543 5.65957 72.3677 5.65957C71.9811 5.65957 71.6677 5.97297 71.6677 6.35957V8.81957C71.6677 8.84166 71.6498 8.85957 71.6277 8.85957H70.9077C70.8856 8.85957 70.8677 8.84166 70.8677 8.81957V6.35957C70.8677 5.97297 70.5543 5.65957 70.1677 5.65957ZM77.6677 6.85957C77.6677 7.52231 77.1305 8.05957 76.4677 8.05957C75.805 8.05957 75.2677 7.52231 75.2677 6.85957C75.2677 6.19683 75.805 5.65957 76.4677 5.65957C77.1305 5.65957 77.6677 6.19683 77.6677 6.85957ZM77.6028 8.50652C77.6299 8.48778 77.6677 8.50681 77.6677 8.53979V8.81957C77.6677 8.84166 77.6856 8.85957 77.7077 8.85957H78.4277C78.4498 8.85957 78.4677 8.84166 78.4677 8.81957V6.85957C78.4677 5.755 77.5723 4.85957 76.4677 4.85957C75.3632 4.85957 74.4677 5.755 74.4677 6.85957C74.4677 7.96414 75.3632 8.85957 76.4677 8.85957C76.8892 8.85957 77.2803 8.72917 77.6028 8.50652ZM81.4277 5.45919C81.4277 5.48128 81.4097 5.49913 81.3876 5.49977C80.6551 5.52097 80.0677 6.12149 80.0677 6.85919V8.81919C80.0677 8.84128 80.0498 8.85919 80.0277 8.85919H79.3077C79.2856 8.85919 79.2677 8.84128 79.2677 8.81919V4.97919C79.2677 4.95709 79.2856 4.93919 79.3077 4.93919H80.0277C80.0498 4.93919 80.0677 4.95709 80.0677 4.97919V5.30107C80.0677 5.33599 80.1097 5.3545 80.1363 5.33194C80.4753 5.04503 80.9111 4.86893 81.3877 4.85958C81.4098 4.85914 81.4277 4.87709 81.4277 4.89919V5.45919Z" fill="white"/>
<path fill-rule="evenodd" clip-rule="evenodd" d="M68.8678 12.0596C68.8899 12.0596 68.9078 12.0775 68.9078 12.0996V14.8596C68.9078 15.9641 68.0124 16.8596 66.9078 16.8596C65.8033 16.8596 64.9078 15.9641 64.9078 14.8596C64.9078 13.755 65.8033 12.8596 66.9078 12.8596C67.3294 12.8596 67.7204 12.99 68.0429 13.2126C68.07 13.2314 68.1078 13.2123 68.1078 13.1794V12.0996C68.1078 12.0775 68.1257 12.0596 68.1478 12.0596H68.8678ZM66.9078 13.6596C67.5706 13.6596 68.1078 14.1968 68.1078 14.8596C68.1078 15.5223 67.5706 16.0596 66.9078 16.0596C66.2451 16.0596 65.7078 15.5223 65.7078 14.8596C65.7078 14.1968 66.2451 13.6596 66.9078 13.6596ZM76.0303 16.1646C75.8328 16.2287 75.5787 16.2226 75.4296 16.066C75.3485 15.9764 75.308 15.8505 75.308 15.6883V13.5396C75.308 13.5175 75.3259 13.4996 75.348 13.4996H76.0678C76.0899 13.4996 76.1078 13.4817 76.1078 13.4596V12.8996C76.1078 12.8775 76.0899 12.8596 76.0678 12.8596H75.348C75.3259 12.8596 75.308 12.8417 75.308 12.8196V12.0996C75.308 12.0775 75.2901 12.0596 75.268 12.0596H74.5478C74.5257 12.0596 74.5078 12.0775 74.5078 12.0996V12.8196C74.5078 12.8417 74.4899 12.8596 74.4678 12.8596H74.1478C74.1257 12.8596 74.1078 12.8775 74.1078 12.8996V13.4596C74.1078 13.4817 74.1257 13.4996 74.1478 13.4996H74.4678C74.4899 13.4996 74.5078 13.5175 74.5078 13.5396V15.7075C74.5078 16.0873 74.6103 16.3754 74.8151 16.5717C75.0199 16.7637 75.3101 16.8597 75.6857 16.8597C75.9183 16.8597 76.1694 16.815 76.3697 16.6895C76.3902 16.6767 76.3938 16.6487 76.3785 16.63C76.2655 16.4918 76.1656 16.3426 76.0804 16.1842C76.0708 16.1664 76.0496 16.1584 76.0303 16.1646ZM72.7078 14.8596C72.7078 15.5223 72.1706 16.0596 71.5078 16.0596C70.8451 16.0596 70.3078 15.5223 70.3078 14.8596C70.3078 14.1968 70.8451 13.6596 71.5078 13.6596C72.1706 13.6596 72.7078 14.1968 72.7078 14.8596ZM72.6429 16.5065C72.67 16.4878 72.7078 16.5068 72.7078 16.5398V16.8196C72.7078 16.8417 72.7257 16.8596 72.7478 16.8596H73.4678C73.4899 16.8596 73.5078 16.8417 73.5078 16.8196V14.8596C73.5078 13.755 72.6124 12.8596 71.5078 12.8596C70.4033 12.8596 69.5078 13.755 69.5078 14.8596C69.5078 15.9641 70.4033 16.8596 71.5078 16.8596C71.9294 16.8596 72.3204 16.7292 72.6429 16.5065ZM78.5478 16.0596C79.2106 16.0596 79.7478 15.5223 79.7478 14.8596C79.7478 14.1968 79.2106 13.6596 78.5478 13.6596C77.8851 13.6596 77.3478 14.1968 77.3478 14.8596C77.3478 15.5223 77.8851 16.0596 78.5478 16.0596ZM79.7478 16.5398C79.7478 16.5068 79.71 16.4878 79.6829 16.5065C79.3604 16.7292 78.9694 16.8596 78.5478 16.8596C77.4433 16.8596 76.5478 15.9641 76.5478 14.8596C76.5478 13.755 77.4433 12.8596 78.5478 12.8596C79.6524 12.8596 80.5478 13.755 80.5478 14.8596V16.8196C80.5478 16.8417 80.5299 16.8596 80.5078 16.8596H79.7878C79.7657 16.8596 79.7478 16.8417 79.7478 16.8196V16.5398Z" fill="white"/>
<path fill-rule="evenodd" clip-rule="evenodd" d="M68.3477 23.1394V20.8994C68.3477 20.8773 68.3298 20.8594 68.3077 20.8594H67.5877C67.5656 20.8594 67.5477 20.8773 67.5477 20.8994V23.1394C67.5477 23.6475 67.1358 24.0594 66.6277 24.0594C66.1196 24.0594 65.7077 23.6475 65.7077 23.1394V20.8994C65.7077 20.8773 65.6898 20.8594 65.6677 20.8594H64.9477C64.9256 20.8594 64.9077 20.8773 64.9077 20.8994V23.1394C64.9077 24.0893 65.6778 24.8594 66.6277 24.8594C67.5776 24.8594 68.3477 24.0893 68.3477 23.1394Z" fill="white"/>
<path fill-rule="evenodd" clip-rule="evenodd" d="M69.9077 20.0591C69.9298 20.0591 69.9477 20.077 69.9477 20.0991V22.0443C69.9477 22.1187 70.0081 22.1791 70.0825 22.1791C70.1247 22.1791 70.1644 22.1594 70.1899 22.1259L71.1413 20.8749C71.1489 20.8649 71.1607 20.8591 71.1732 20.8591H72.0777C72.1108 20.8591 72.1296 20.897 72.1096 20.9233L70.8687 22.5549C70.8578 22.5692 70.8578 22.589 70.8687 22.6033L72.5404 24.8013C72.5584 24.825 72.5415 24.8591 72.5117 24.8591H71.5991C71.5866 24.8591 71.5748 24.8532 71.5672 24.8433L70.1899 23.0323C70.1644 22.9988 70.1247 22.9791 70.0825 22.9791C70.0081 22.9791 69.9477 23.0394 69.9477 23.1139V24.8191C69.9477 24.8412 69.9298 24.8591 69.9077 24.8591H69.1877C69.1656 24.8591 69.1477 24.8412 69.1477 24.8191V20.0991C69.1477 20.077 69.1656 20.0591 69.1877 20.0591H69.9077Z" fill="white"/>
<path fill-rule="evenodd" clip-rule="evenodd" d="M83.2956 23.5953C83.0761 23.8777 82.7331 24.0594 82.3477 24.0594C81.8141 24.0594 81.362 23.7112 81.2059 23.2297C81.1681 23.1131 81.1477 22.9886 81.1477 22.8594C81.1477 22.7301 81.1681 22.6057 81.2059 22.489C81.362 22.0075 81.8141 21.6594 82.3477 21.6594C82.8812 21.6594 83.3334 22.0075 83.4894 22.489C83.4976 22.5142 83.4784 22.5394 83.452 22.5394H81.6666C81.6408 22.5394 81.6278 22.5394 81.6175 22.5466C81.6071 22.5539 81.6031 22.5653 81.5949 22.588C81.5643 22.6727 81.5477 22.7641 81.5477 22.8594C81.5477 22.9546 81.5643 23.046 81.5949 23.1308C81.6031 23.1535 81.6071 23.1648 81.6175 23.1721C81.6278 23.1794 81.6408 23.1794 81.6666 23.1794H84.2881C84.3078 23.1794 84.3245 23.1651 84.3273 23.1457C84.3407 23.0522 84.3477 22.9566 84.3477 22.8594C84.3477 21.7548 83.4522 20.8594 82.3477 20.8594C81.2431 20.8594 80.3477 21.7548 80.3477 22.8594C80.3477 23.9639 81.2431 24.8594 82.3477 24.8594C83.1778 24.8594 83.8898 24.3536 84.1923 23.6335C84.2032 23.6076 84.1839 23.5794 84.1558 23.5794H83.3277C83.3151 23.5794 83.3033 23.5853 83.2956 23.5953Z" fill="white"/>
<path fill-rule="evenodd" clip-rule="evenodd" d="M86.0697 24.0655C86.2188 24.2221 86.4729 24.2282 86.6704 24.1641C86.6897 24.1579 86.7109 24.1659 86.7205 24.1838C86.8057 24.3421 86.9056 24.4913 87.0186 24.6295C87.0339 24.6482 87.0303 24.6762 87.0098 24.689C86.8095 24.8145 86.5583 24.8593 86.3258 24.8593C85.9502 24.8593 85.66 24.7632 85.4552 24.5712C85.2503 24.3749 85.1479 24.0868 85.1479 23.707V21.5391C85.1479 21.517 85.13 21.4991 85.1079 21.4991H84.7879C84.7658 21.4991 84.7479 21.4812 84.7479 21.4591V20.8991C84.7479 20.877 84.7658 20.8591 84.7879 20.8591H85.1079C85.13 20.8591 85.1479 20.8412 85.1479 20.8191V20.0991C85.1479 20.077 85.1658 20.0591 85.1879 20.0591H85.9081C85.9302 20.0591 85.9481 20.077 85.9481 20.0991V20.8191C85.9481 20.8412 85.966 20.8591 85.9881 20.8591H86.7079C86.73 20.8591 86.7479 20.877 86.7479 20.8991V21.4591C86.7479 21.4812 86.73 21.4991 86.7079 21.4991H85.9881C85.966 21.4991 85.9481 21.517 85.9481 21.5391V23.6878C85.9481 23.85 85.9886 23.9759 86.0697 24.0655Z" fill="white"/>
<path fill-rule="evenodd" clip-rule="evenodd" d="M72.9879 20.0591C72.9658 20.0591 72.9479 20.077 72.9479 20.0991V20.8191C72.9479 20.8412 72.9658 20.8591 72.9879 20.8591H73.7079C73.73 20.8591 73.7479 20.8412 73.7479 20.8191V20.0991C73.7479 20.077 73.73 20.0591 73.7079 20.0591H72.9879ZM72.9879 21.4991C72.9658 21.4991 72.9479 21.517 72.9479 21.5391V24.8191C72.9479 24.8412 72.9658 24.8591 72.9879 24.8591H73.7079C73.73 24.8591 73.7479 24.8412 73.7479 24.8191V21.5391C73.7479 21.517 73.73 21.4991 73.7079 21.4991H72.9879Z" fill="white"/>
<path fill-rule="evenodd" clip-rule="evenodd" d="M75.3477 22.3594C75.3477 21.9728 75.6611 21.6594 76.0477 21.6594C76.4343 21.6594 76.7477 21.9728 76.7477 22.3594V24.8194C76.7477 24.8415 76.7656 24.8594 76.7877 24.8594H77.5077C77.5298 24.8594 77.5477 24.8415 77.5477 24.8194V22.3594C77.5477 21.9728 77.8611 21.6594 78.2477 21.6594C78.6343 21.6594 78.9477 21.9728 78.9477 22.3594V24.8194C78.9477 24.8415 78.9656 24.8594 78.9877 24.8594H79.7077C79.7298 24.8594 79.7477 24.8415 79.7477 24.8194V22.3594C79.7477 21.5309 79.0762 20.8594 78.2477 20.8594C77.8286 20.8594 77.4497 21.0313 77.1775 21.3084C77.1612 21.325 77.1343 21.325 77.118 21.3084C76.8458 21.0313 76.4668 20.8594 76.0477 20.8594C75.2193 20.8594 74.5477 21.5309 74.5477 22.3594V24.8194C74.5477 24.8415 74.5656 24.8594 74.5877 24.8594H75.3077C75.3298 24.8594 75.3477 24.8415 75.3477 24.8194V22.3594Z" fill="white"/>
</svg>
