<?xml version="1.0" encoding="utf-8"?>
<!-- Generator: Adobe Illustrator 27.3.1, SVG Export Plug-In . SVG Version: 6.00 Build 0)  -->
<svg version="1.1" id="Layer_1" xmlns="http://www.w3.org/2000/svg" xmlns:xlink="http://www.w3.org/1999/xlink" x="0px" y="0px"
	 viewBox="0 0 1920 225" style="enable-background:new 0 0 1920 225;" xml:space="preserve">
<style type="text/css">
	.st0{fill-rule:evenodd;clip-rule:evenodd;fill:#1F1F1F;}
	.st1{fill:#F3D329;}
	.st2{fill:#263E6E;}
	.st3{fill:#2F57E4;}
	.st4{fill:none;stroke:#B3B3B3;stroke-width:1.0013;}
	.st5{fill:#1E1E1E;}
</style>
<path class="st0" d="M122.65,150.19c-1.66,27.32-26.85,48.74-61.3,48.74c-33.34,0-60.47-26.58-61.35-59.69
	c-0.02-0.92,0.72-1.66,1.64-1.66h28.2c0.92,0,1.65,0.74,1.7,1.66c0.75,14.8,11.6,26.53,29.82,26.53c21.18,0,27.83-11.74,28.18-17.59
	c1.93-31.73-89.56,1-89.48-66.33c1.66-27.32,26.85-48.74,61.3-48.74c33.34,0,60.47,26.58,61.35,59.69c0.02,0.92-0.72,1.66-1.64,1.66
	h-28.2c-0.92,0-1.65-0.74-1.7-1.66c-0.75-14.8-11.6-26.53-29.82-26.53c-21.18,0-27.83,11.74-28.18,17.59
	C31.25,115.55,122.73,82.86,122.65,150.19z"/>
<path class="st0" d="M311.76-0.06c0.92,0,1.66,0.74,1.66,1.66v114.42c0,43.81-33.98,79.69-77.02,82.71
	c-0.95,0.07-1.74-0.69-1.74-1.64v-29.96c0-0.86,0.67-1.58,1.52-1.68c24.81-2.81,44.08-23.87,44.08-49.43s-19.27-46.62-44.08-49.43
	c-0.86-0.1-1.52-0.81-1.52-1.68V34.95c0-0.95,0.79-1.7,1.74-1.64c15.22,1.07,29.32,6.25,41.17,14.43c1.13,0.78,2.69-0.01,2.69-1.38
	V1.6c0-0.92,0.74-1.66,1.66-1.66H311.76z"/>
<path class="st0" d="M480.9,127.63V34.77c0-0.92-0.74-1.66-1.66-1.66h-29.85c-0.92,0-1.66,0.74-1.66,1.66v92.86
	c0,21.06-17.08,38.14-38.14,38.14s-38.14-17.08-38.14-38.14V34.77c0-0.92-0.74-1.66-1.66-1.66h-29.85c-0.92,0-1.66,0.74-1.66,1.66
	v92.86c0,39.38,31.93,71.31,71.31,71.31C448.97,198.94,480.9,167.01,480.9,127.63z"/>
<path class="st1" d="M184.86,96.21c-2.64,6.07-4.1,12.77-4.1,19.81c0,7.04,1.46,13.74,4.1,19.81c0.34,0.79,0.06,1.72-0.69,2.15
	l-25.96,14.99c-0.82,0.47-1.87,0.17-2.29-0.69c-5.34-10.95-8.33-23.26-8.33-36.27c0-13,2.99-25.31,8.33-36.27
	c0.42-0.85,1.47-1.16,2.29-0.69l25.96,14.99C184.91,94.49,185.2,95.42,184.86,96.21z"/>
<path class="st2" d="M161.81,69.57c13.88-20.48,36.67-34.42,62.8-36.25c0.95-0.07,1.74,0.69,1.74,1.64v29.96
	c0,0.86-0.66,1.58-1.52,1.68c-14.04,1.59-26.3,9.03-34.31,19.81c-0.51,0.69-1.46,0.91-2.21,0.48l-25.96-14.99
	C161.54,71.42,161.28,70.35,161.81,69.57z"/>
<path class="st3" d="M190.52,145.64c8,10.79,20.27,18.22,34.31,19.81c0.86,0.1,1.52,0.81,1.52,1.68v29.96c0,0.95-0.8,1.7-1.74,1.64
	c-26.13-1.83-48.92-15.78-62.8-36.25c-0.53-0.79-0.27-1.85,0.55-2.33l25.96-14.99C189.06,144.73,190.01,144.95,190.52,145.64z"/>
<path class="st0" d="M681.91,59.69c1.24,1.3,3.34,1.35,4.98,0.82c0.16-0.05,0.34,0.01,0.41,0.16c0.71,1.31,1.54,2.55,2.47,3.7
	c0.12,0.16,0.1,0.39-0.08,0.49c-1.66,1.04-3.74,1.41-5.67,1.41c-3.11,0-5.52-0.8-7.22-2.39c-1.7-1.63-2.55-4.02-2.55-7.17V38.75
	c0-0.18-0.15-0.33-0.33-0.33h-2.65c-0.18,0-0.33-0.15-0.33-0.33v-4.64c0-0.18,0.15-0.33,0.33-0.33h2.65c0.18,0,0.33-0.15,0.33-0.33
	v-5.97c0-0.18,0.15-0.33,0.33-0.33h5.97c0.18,0,0.33,0.15,0.33,0.33v5.97c0,0.18,0.15,0.33,0.33,0.33h5.97
	c0.18,0,0.33,0.15,0.33,0.33v4.64c0,0.18-0.15,0.33-0.33,0.33h-5.97c-0.18,0-0.33,0.15-0.33,0.33v17.82
	C680.9,57.91,681.23,58.95,681.91,59.69z M555.18,56.53c-0.33,5.46-5.37,9.75-12.26,9.75c-6.67,0-12.09-5.32-12.27-11.94
	c0-0.18,0.14-0.33,0.33-0.33h5.64c0.18,0,0.33,0.15,0.34,0.33c0.15,2.96,2.32,5.31,5.96,5.31c4.23,0,5.56-2.35,5.63-3.52
	c0.16-2.59-2.79-3.03-6.34-3.56c-5.15-0.77-11.55-1.73-11.54-9.7c0.33-5.46,5.37-9.75,12.26-9.75c6.67,0,12.09,5.32,12.27,11.94
	c0.01,0.18-0.15,0.33-0.33,0.33h-5.64c-0.18,0-0.33-0.15-0.34-0.33c-0.15-2.96-2.32-5.31-5.96-5.31c-4.23,0-5.56,2.35-5.63,3.52
	c-0.16,2.59,2.79,3.03,6.35,3.56C548.78,47.59,555.19,48.55,555.18,56.53z M574.26,39.74c-3.2,0-5.8,2.6-5.8,5.8v20.4
	c0,0.18-0.15,0.33-0.33,0.33h-5.97c-0.18,0-0.33-0.15-0.33-0.33v-20.4c0-6.87,5.57-12.44,12.44-12.44c3.48,0,6.62,1.43,8.88,3.72
	c0.14,0.14,0.36,0.14,0.49,0c2.26-2.3,5.4-3.72,8.88-3.72c6.87,0,12.44,5.57,12.44,12.44v20.4c0,0.18-0.15,0.33-0.33,0.33h-5.97
	c-0.18,0-0.33-0.15-0.33-0.33v-20.4c0-3.21-2.6-5.8-5.8-5.8c-3.21,0-5.81,2.6-5.81,5.8v20.4c0,0.18-0.15,0.33-0.33,0.33h-5.97
	c-0.18,0-0.33-0.15-0.33-0.33v-20.4C580.07,42.34,577.47,39.74,574.26,39.74z M636.45,49.69c0,5.5-4.45,9.95-9.95,9.95
	s-9.95-4.45-9.95-9.95c0-5.5,4.45-9.95,9.95-9.95S636.45,44.2,636.45,49.69z M635.91,63.35c0.22-0.16,0.54,0,0.54,0.28v2.32
	c0,0.18,0.15,0.33,0.33,0.33h5.97c0.18,0,0.33-0.15,0.33-0.33V49.69c0-9.16-7.43-16.58-16.59-16.58s-16.58,7.42-16.58,16.58
	c0,9.16,7.42,16.58,16.58,16.58C629.99,66.27,633.24,65.19,635.91,63.35z M667.63,38.08c0,0.18-0.15,0.33-0.33,0.34
	c-6.07,0.18-10.94,5.15-10.94,11.27v16.25c0,0.18-0.15,0.33-0.33,0.33h-5.97c-0.18,0-0.33-0.15-0.33-0.33V34.1
	c0-0.18,0.15-0.33,0.33-0.33h5.97c0.18,0,0.33,0.15,0.33,0.33v2.67c0,0.29,0.35,0.44,0.57,0.26c2.81-2.38,6.42-3.84,10.37-3.92
	c0.18,0,0.33,0.15,0.33,0.33V38.08z"/>
<path class="st0" d="M563.49,92.81c0.18,0,0.33,0.15,0.33,0.33v22.88c0,9.16-7.42,16.58-16.59,16.58c-9.16,0-16.58-7.42-16.58-16.58
	s7.42-16.58,16.58-16.58c3.5,0,6.74,1.08,9.41,2.93c0.23,0.16,0.54,0,0.54-0.28v-8.95c0-0.18,0.15-0.33,0.33-0.33H563.49z
	 M547.23,106.07c5.5,0,9.95,4.45,9.95,9.95s-4.45,9.95-9.95,9.95c-5.49,0-9.95-4.45-9.95-9.95S541.74,106.07,547.23,106.07z
	 M622.88,126.84c-1.64,0.53-3.74,0.48-4.98-0.82c-0.67-0.74-1.01-1.79-1.01-3.13v-17.82c0-0.18,0.15-0.33,0.33-0.33h5.97
	c0.18,0,0.33-0.15,0.33-0.33v-4.64c0-0.18-0.15-0.33-0.33-0.33h-5.97c-0.18,0-0.33-0.15-0.33-0.33v-5.97c0-0.18-0.15-0.33-0.33-0.33
	h-5.97c-0.18,0-0.33,0.15-0.33,0.33v5.97c0,0.18-0.15,0.33-0.33,0.33h-2.65c-0.18,0-0.33,0.15-0.33,0.33v4.64
	c0,0.18,0.15,0.33,0.33,0.33h2.65c0.18,0,0.33,0.15,0.33,0.33v17.98c0,3.15,0.85,5.54,2.55,7.16c1.7,1.59,4.1,2.39,7.22,2.39
	c1.93,0,4.01-0.37,5.67-1.41c0.17-0.11,0.2-0.34,0.08-0.49c-0.94-1.15-1.77-2.38-2.47-3.7
	C623.21,126.86,623.03,126.79,622.88,126.84z M595.33,116.02c0,5.49-4.45,9.95-9.95,9.95c-5.49,0-9.95-4.45-9.95-9.95
	s4.46-9.95,9.95-9.95C590.87,106.07,595.33,110.53,595.33,116.02z M594.79,129.68c0.22-0.16,0.54,0,0.54,0.28v2.32
	c0,0.18,0.15,0.33,0.33,0.33h5.97c0.18,0,0.33-0.15,0.33-0.33v-16.25c0-9.16-7.43-16.58-16.59-16.58c-9.16,0-16.58,7.42-16.58,16.58
	s7.42,16.58,16.58,16.58C588.87,132.61,592.11,131.53,594.79,129.68z M643.75,125.97c5.5,0,9.95-4.45,9.95-9.95
	s-4.45-9.95-9.95-9.95c-5.5,0-9.95,4.45-9.95,9.95S638.25,125.97,643.75,125.97z M653.7,129.95c0-0.27-0.31-0.43-0.54-0.28
	c-2.67,1.85-5.92,2.93-9.41,2.93c-9.16,0-16.58-7.42-16.58-16.58s7.42-16.58,16.58-16.58c9.16,0,16.59,7.42,16.59,16.58v16.25
	c0,0.18-0.15,0.33-0.34,0.33h-5.97c-0.18,0-0.33-0.15-0.33-0.33V129.95z"/>
<path class="st0" d="M559.18,184.67V166.1c0-0.18-0.15-0.33-0.33-0.33h-5.97c-0.18,0-0.33,0.15-0.33,0.33v18.57
	c0,4.21-3.41,7.63-7.63,7.63c-4.21,0-7.63-3.41-7.63-7.63V166.1c0-0.18-0.15-0.33-0.33-0.33h-5.97c-0.18,0-0.33,0.15-0.33,0.33
	v18.57c0,7.88,6.38,14.26,14.26,14.26C552.79,198.93,559.18,192.55,559.18,184.67z"/>
<path class="st0" d="M572.11,159.13c0.18,0,0.33,0.15,0.33,0.33v16.13c0,0.62,0.5,1.12,1.12,1.12c0.35,0,0.68-0.16,0.89-0.44
	l7.89-10.37c0.07-0.08,0.16-0.13,0.27-0.13h7.5c0.28,0,0.43,0.31,0.27,0.53l-10.29,13.53c-0.09,0.12-0.09,0.28,0,0.4l13.86,18.22
	c0.15,0.2,0.01,0.48-0.24,0.48h-7.56c-0.11,0-0.21-0.05-0.27-0.13l-11.42-15.02c-0.21-0.28-0.54-0.44-0.89-0.44
	c-0.62,0-1.12,0.5-1.12,1.12v14.14c0,0.18-0.15,0.33-0.33,0.33h-5.97c-0.18,0-0.33-0.15-0.33-0.33v-39.14
	c0-0.18,0.15-0.33,0.33-0.33H572.11z"/>
<path class="st0" d="M683.12,188.45c-1.82,2.34-4.67,3.85-7.86,3.85c-4.42,0-8.17-2.89-9.47-6.88c-0.31-0.97-0.48-2-0.48-3.07
	c0-1.07,0.17-2.1,0.48-3.07c1.3-3.99,5.05-6.88,9.47-6.88s8.17,2.89,9.47,6.88c0.07,0.21-0.09,0.42-0.31,0.42h-14.81
	c-0.21,0-0.32,0-0.41,0.06c-0.09,0.06-0.12,0.15-0.18,0.34c-0.26,0.7-0.4,1.46-0.4,2.25c0,0.79,0.14,1.55,0.4,2.25
	c0.07,0.19,0.1,0.28,0.18,0.34c0.09,0.06,0.2,0.06,0.41,0.06h21.74c0.16,0,0.3-0.12,0.32-0.28c0.11-0.78,0.17-1.57,0.17-2.37
	c0-9.16-7.43-16.58-16.59-16.58s-16.58,7.42-16.58,16.58c0,9.16,7.42,16.58,16.58,16.58c6.88,0,12.79-4.19,15.29-10.16
	c0.09-0.21-0.07-0.45-0.3-0.45h-6.86C683.28,188.32,683.18,188.37,683.12,188.45z"/>
<path class="st0" d="M706.11,192.35c1.24,1.3,3.35,1.35,4.98,0.82c0.16-0.05,0.34,0.02,0.42,0.16c0.71,1.31,1.54,2.55,2.47,3.7
	c0.13,0.16,0.1,0.39-0.07,0.49c-1.66,1.04-3.74,1.41-5.67,1.41c-3.11,0-5.52-0.8-7.22-2.39c-1.7-1.63-2.54-4.02-2.54-7.17v-17.98
	c0-0.18-0.15-0.33-0.34-0.33h-2.65c-0.18,0-0.33-0.15-0.33-0.33v-4.64c0-0.18,0.15-0.33,0.33-0.33h2.65c0.18,0,0.34-0.15,0.34-0.33
	v-5.97c0-0.18,0.15-0.33,0.33-0.33h5.97c0.18,0,0.33,0.15,0.33,0.33v5.97c0,0.18,0.15,0.33,0.34,0.33h5.97
	c0.18,0,0.33,0.15,0.33,0.33v4.64c0,0.18-0.15,0.33-0.33,0.33h-5.97c-0.18,0-0.34,0.15-0.34,0.33v17.82
	C705.1,190.57,705.44,191.61,706.11,192.35z"/>
<path class="st0" d="M597.65,159.13c-0.18,0-0.33,0.15-0.33,0.33v5.97c0,0.18,0.15,0.33,0.33,0.33h5.97c0.18,0,0.34-0.15,0.34-0.33
	v-5.97c0-0.18-0.15-0.33-0.34-0.33H597.65z M597.65,171.07c-0.18,0-0.33,0.15-0.33,0.33v27.2c0,0.18,0.15,0.33,0.33,0.33h5.97
	c0.18,0,0.34-0.15,0.34-0.33v-27.2c0-0.18-0.15-0.33-0.34-0.33H597.65z"/>
<path class="st0" d="M617.22,178.21c0-3.21,2.59-5.8,5.8-5.8c3.21,0,5.81,2.6,5.81,5.8v20.4c0,0.18,0.15,0.33,0.33,0.33h5.97
	c0.18,0,0.33-0.15,0.33-0.33v-20.4c0-3.21,2.6-5.8,5.8-5.8c3.21,0,5.81,2.6,5.81,5.8v20.4c0,0.18,0.15,0.33,0.33,0.33h5.97
	c0.18,0,0.33-0.15,0.33-0.33v-20.4c0-6.87-5.57-12.44-12.44-12.44c-3.47,0-6.61,1.43-8.87,3.72c-0.14,0.14-0.36,0.14-0.49,0
	c-2.26-2.3-5.4-3.72-8.88-3.72c-6.87,0-12.44,5.57-12.44,12.44v20.4c0,0.18,0.15,0.33,0.33,0.33h5.97c0.18,0,0.34-0.15,0.34-0.33
	V178.21z"/>
<line class="st4" x1="827.75" y1="7.37" x2="827.75" y2="224.67"/>
<path class="st5" d="M984.42,96.7c-0.36-3.37-1.88-5.99-4.55-7.87c-2.65-1.88-6.09-2.82-10.34-2.82c-2.98,0-5.54,0.45-7.68,1.35
	c-2.13,0.9-3.77,2.12-4.9,3.67c-1.13,1.54-1.71,3.31-1.74,5.29c0,1.65,0.37,3.07,1.12,4.28c0.77,1.21,1.81,2.24,3.12,3.09
	c1.31,0.82,2.77,1.52,4.36,2.08c1.6,0.57,3.2,1.04,4.82,1.43l7.41,1.85c2.98,0.69,5.85,1.63,8.6,2.82c2.78,1.18,5.26,2.68,7.44,4.48
	c2.21,1.8,3.97,3.97,5.25,6.52c1.29,2.55,1.93,5.53,1.93,8.95c0,4.63-1.18,8.71-3.55,12.23c-2.37,3.5-5.79,6.24-10.27,8.22
	c-4.45,1.95-9.84,2.93-16.16,2.93c-6.15,0-11.49-0.95-16.02-2.85c-4.5-1.9-8.02-4.68-10.57-8.33c-2.52-3.65-3.88-8.1-4.09-13.35
	h14.08c0.21,2.75,1.05,5.04,2.54,6.87c1.49,1.83,3.43,3.19,5.83,4.09c2.42,0.9,5.12,1.35,8.1,1.35c3.11,0,5.84-0.46,8.18-1.39
	c2.37-0.95,4.22-2.26,5.56-3.94c1.33-1.7,2.02-3.68,2.05-5.94c-0.03-2.06-0.63-3.76-1.81-5.09c-1.18-1.36-2.84-2.5-4.98-3.4
	c-2.11-0.93-4.58-1.75-7.41-2.47l-8.99-2.31c-6.51-1.67-11.65-4.21-15.44-7.6c-3.75-3.42-5.63-7.96-5.63-13.62
	c0-4.66,1.26-8.73,3.78-12.23c2.54-3.5,6.01-6.21,10.38-8.14c4.37-1.96,9.33-2.93,14.85-2.93c5.6,0,10.52,0.98,14.74,2.93
	c4.25,1.93,7.58,4.62,9.99,8.06c2.42,3.42,3.67,7.36,3.74,11.81H984.42z M1011.42,154V94.73h13.35v10.07h0.69
	c1.24-3.4,3.28-6.04,6.14-7.95c2.85-1.93,6.26-2.89,10.22-2.89c4.01,0,7.39,0.98,10.15,2.93c2.78,1.93,4.73,4.57,5.86,7.91h0.62
	c1.31-3.29,3.52-5.92,6.64-7.87c3.14-1.98,6.85-2.97,11.15-2.97c5.45,0,9.9,1.72,13.35,5.17c3.45,3.45,5.17,8.48,5.17,15.09V154h-14
	v-37.62c0-3.68-0.98-6.37-2.94-8.06c-1.95-1.72-4.35-2.58-7.17-2.58c-3.37,0-6.01,1.05-7.91,3.16c-1.88,2.08-2.82,4.8-2.82,8.14V154
	h-13.7v-38.2c0-3.06-0.93-5.5-2.78-7.33c-1.82-1.83-4.22-2.74-7.18-2.74c-2,0-3.83,0.51-5.47,1.54c-1.65,1-2.96,2.43-3.94,4.28
	c-0.98,1.83-1.46,3.96-1.46,6.4V154H1011.42z M1125.98,155.19c-3.75,0-7.13-0.67-10.15-2.01c-2.98-1.36-5.35-3.37-7.1-6.02
	c-1.73-2.65-2.59-5.92-2.59-9.8c0-3.34,0.62-6.11,1.85-8.3c1.24-2.19,2.92-3.94,5.06-5.25c2.14-1.31,4.54-2.3,7.22-2.97
	c2.7-0.69,5.49-1.2,8.37-1.51c3.47-0.36,6.29-0.68,8.45-0.96c2.16-0.31,3.73-0.77,4.7-1.39c1-0.64,1.51-1.63,1.51-2.97v-0.23
	c0-2.91-0.86-5.16-2.59-6.75c-1.73-1.6-4.2-2.39-7.44-2.39c-3.42,0-6.14,0.75-8.14,2.24c-1.98,1.49-3.32,3.25-4.01,5.29l-13.04-1.85
	c1.03-3.6,2.72-6.61,5.09-9.03c2.37-2.44,5.26-4.27,8.69-5.48c3.42-1.23,7.2-1.85,11.34-1.85c2.86,0,5.7,0.33,8.53,1
	c2.83,0.67,5.41,1.77,7.75,3.32c2.34,1.52,4.22,3.59,5.64,6.21c1.44,2.62,2.16,5.9,2.16,9.84V154h-13.43v-8.14h-0.46
	c-0.85,1.65-2.05,3.19-3.59,4.63c-1.51,1.41-3.43,2.56-5.75,3.43C1131.76,154.77,1129.07,155.19,1125.98,155.19z M1129.61,144.93
	c2.8,0,5.24-0.55,7.29-1.66c2.06-1.13,3.64-2.62,4.75-4.48c1.13-1.85,1.7-3.87,1.7-6.06v-6.98c-0.44,0.36-1.18,0.69-2.24,1
	c-1.03,0.31-2.19,0.58-3.47,0.81s-2.56,0.44-3.82,0.62c-1.26,0.18-2.35,0.33-3.28,0.46c-2.08,0.28-3.95,0.75-5.6,1.39
	c-1.64,0.64-2.94,1.54-3.9,2.7c-0.95,1.13-1.43,2.6-1.43,4.4c0,2.57,0.94,4.51,2.82,5.83
	C1124.31,144.28,1126.7,144.93,1129.61,144.93z M1171.32,154V94.73h13.55v9.88h0.61c1.09-3.42,2.94-6.06,5.56-7.91
	c2.65-1.88,5.68-2.82,9.07-2.82c0.77,0,1.63,0.04,2.58,0.12c0.98,0.05,1.79,0.14,2.43,0.27v12.85c-0.59-0.21-1.53-0.39-2.82-0.54
	c-1.26-0.18-2.48-0.27-3.67-0.27c-2.54,0-4.83,0.55-6.86,1.66c-2.01,1.08-3.59,2.59-4.75,4.51c-1.16,1.93-1.74,4.15-1.74,6.67V154
	H1171.32z M1247.18,94.73v10.8h-34.07v-10.8H1247.18z M1221.52,80.54h13.97v55.64c0,1.88,0.28,3.32,0.85,4.32
	c0.59,0.98,1.37,1.65,2.32,2.01c0.95,0.36,2.01,0.54,3.16,0.54c0.87,0,1.67-0.06,2.39-0.19c0.75-0.13,1.31-0.24,1.7-0.35l2.35,10.92
	c-0.75,0.26-1.81,0.54-3.2,0.85c-1.37,0.31-3.04,0.49-5.02,0.54c-3.5,0.1-6.65-0.42-9.45-1.58c-2.8-1.18-5.03-3.01-6.68-5.48
	c-1.62-2.47-2.41-5.56-2.39-9.26V80.54z M1313.2,154h-26.77V74.98h27.32c7.85,0,14.58,1.58,20.22,4.75
	c5.66,3.14,10,7.65,13.04,13.54c3.03,5.89,4.55,12.94,4.55,21.14c0,8.23-1.53,15.3-4.59,21.22c-3.04,5.92-7.42,10.46-13.16,13.62
	C1328.09,152.42,1321.22,154,1313.2,154z M1300.74,141.61h11.77c5.51,0,10.1-1,13.78-3.01c3.68-2.03,6.45-5.05,8.3-9.07
	c1.85-4.04,2.78-9.08,2.78-15.12c0-6.05-0.93-11.06-2.78-15.05c-1.85-4.01-4.59-7.01-8.22-8.99c-3.6-2.01-8.07-3.01-13.43-3.01
	h-12.19V141.61z M1381.59,155.19c-3.75,0-7.13-0.67-10.15-2.01c-2.98-1.36-5.35-3.37-7.1-6.02c-1.73-2.65-2.59-5.92-2.59-9.8
	c0-3.34,0.62-6.11,1.85-8.3c1.24-2.19,2.92-3.94,5.06-5.25c2.14-1.31,4.54-2.3,7.22-2.97c2.7-0.69,5.49-1.2,8.37-1.51
	c3.47-0.36,6.29-0.68,8.45-0.96c2.16-0.31,3.73-0.77,4.7-1.39c1-0.64,1.5-1.63,1.5-2.97v-0.23c0-2.91-0.86-5.16-2.58-6.75
	c-1.73-1.6-4.2-2.39-7.45-2.39c-3.42,0-6.13,0.75-8.14,2.24c-1.98,1.49-3.32,3.25-4.01,5.29l-13.04-1.85
	c1.03-3.6,2.72-6.61,5.09-9.03c2.37-2.44,5.26-4.27,8.68-5.48c3.42-1.23,7.21-1.85,11.34-1.85c2.86,0,5.7,0.33,8.53,1
	c2.83,0.67,5.41,1.77,7.75,3.32c2.34,1.52,4.22,3.59,5.64,6.21c1.44,2.62,2.16,5.9,2.16,9.84V154h-13.43v-8.14h-0.46
	c-0.85,1.65-2.05,3.19-3.59,4.63c-1.51,1.41-3.43,2.56-5.75,3.43C1387.36,154.77,1384.67,155.19,1381.59,155.19z M1385.22,144.93
	c2.8,0,5.24-0.55,7.29-1.66c2.06-1.13,3.64-2.62,4.75-4.48c1.13-1.85,1.7-3.87,1.7-6.06v-6.98c-0.44,0.36-1.19,0.69-2.24,1
	c-1.03,0.31-2.19,0.58-3.47,0.81c-1.29,0.23-2.56,0.44-3.82,0.62c-1.26,0.18-2.35,0.33-3.28,0.46c-2.08,0.28-3.95,0.75-5.6,1.39
	c-1.64,0.64-2.94,1.54-3.9,2.7c-0.95,1.13-1.43,2.6-1.43,4.4c0,2.57,0.94,4.51,2.82,5.83
	C1379.92,144.28,1382.31,144.93,1385.22,144.93z M1456.52,94.73v10.8h-34.07v-10.8H1456.52z M1430.86,80.54h13.97v55.64
	c0,1.88,0.28,3.32,0.85,4.32c0.59,0.98,1.36,1.65,2.31,2.01c0.96,0.36,2.01,0.54,3.16,0.54c0.88,0,1.68-0.06,2.39-0.19
	c0.75-0.13,1.31-0.24,1.7-0.35l2.35,10.92c-0.74,0.26-1.81,0.54-3.2,0.85c-1.36,0.31-3.04,0.49-5.02,0.54
	c-3.49,0.1-6.65-0.42-9.45-1.58c-2.8-1.18-5.03-3.01-6.67-5.48c-1.62-2.47-2.42-5.56-2.39-9.26V80.54z M1485.25,155.19
	c-3.75,0-7.13-0.67-10.15-2.01c-2.98-1.36-5.35-3.37-7.1-6.02c-1.72-2.65-2.58-5.92-2.58-9.8c0-3.34,0.62-6.11,1.85-8.3
	c1.24-2.19,2.92-3.94,5.06-5.25c2.13-1.31,4.54-2.3,7.22-2.97c2.7-0.69,5.49-1.2,8.37-1.51c3.47-0.36,6.29-0.68,8.45-0.96
	c2.16-0.31,3.73-0.77,4.71-1.39c1-0.64,1.5-1.63,1.5-2.97v-0.23c0-2.91-0.86-5.16-2.58-6.75c-1.73-1.6-4.2-2.39-7.45-2.39
	c-3.42,0-6.13,0.75-8.14,2.24c-1.98,1.49-3.32,3.25-4.01,5.29l-13.04-1.85c1.03-3.6,2.72-6.61,5.09-9.03
	c2.37-2.44,5.26-4.27,8.68-5.48c3.42-1.23,7.21-1.85,11.34-1.85c2.85,0,5.7,0.33,8.53,1c2.83,0.67,5.41,1.77,7.75,3.32
	c2.34,1.52,4.22,3.59,5.63,6.21c1.44,2.62,2.16,5.9,2.16,9.84V154h-13.43v-8.14h-0.46c-0.85,1.65-2.05,3.19-3.59,4.63
	c-1.52,1.41-3.43,2.56-5.75,3.43C1491.03,154.77,1488.34,155.19,1485.25,155.19z M1488.88,144.93c2.8,0,5.24-0.55,7.29-1.66
	c2.06-1.13,3.64-2.62,4.75-4.48c1.13-1.85,1.69-3.87,1.69-6.06v-6.98c-0.43,0.36-1.18,0.69-2.24,1c-1.03,0.31-2.19,0.58-3.47,0.81
	s-2.56,0.44-3.82,0.62c-1.26,0.18-2.35,0.33-3.28,0.46c-2.08,0.28-3.94,0.75-5.59,1.39c-1.64,0.64-2.95,1.54-3.9,2.7
	c-0.95,1.13-1.43,2.6-1.43,4.4c0,2.57,0.94,4.51,2.82,5.83C1483.58,144.28,1485.97,144.93,1488.88,144.93z M1607.96,74.98h14.32
	v51.62c0,5.66-1.34,10.64-4.01,14.93c-2.65,4.3-6.38,7.65-11.19,10.07c-4.81,2.39-10.43,3.59-16.86,3.59
	c-6.46,0-12.09-1.2-16.9-3.59c-4.81-2.42-8.54-5.77-11.19-10.07c-2.65-4.3-3.98-9.27-3.98-14.93V74.98h14.32v50.43
	c0,3.29,0.72,6.23,2.16,8.8c1.46,2.57,3.53,4.59,6.17,6.06c2.65,1.44,5.79,2.16,9.41,2.16c3.63,0,6.77-0.72,9.41-2.16
	c2.67-1.47,4.74-3.49,6.17-6.06c1.44-2.57,2.16-5.5,2.16-8.8V74.98z M1649.95,135.4l-0.04-16.86h2.24l21.3-23.81h16.33l-26.2,29.17
	h-2.9L1649.95,135.4z M1637.22,154V74.98h13.97V154H1637.22z M1674.42,154l-19.29-26.97l9.42-9.84l26.58,36.81H1674.42z
	 M1699.08,154V94.73h13.97V154H1699.08z M1706.11,86.32c-2.21,0-4.12-0.73-5.71-2.2c-1.59-1.49-2.39-3.28-2.39-5.36
	c0-2.11,0.8-3.9,2.39-5.36c1.6-1.49,3.5-2.24,5.71-2.24c2.24,0,4.14,0.75,5.71,2.24c1.6,1.47,2.39,3.25,2.39,5.36
	c0,2.08-0.8,3.87-2.39,5.36C1710.25,85.59,1708.34,86.32,1706.11,86.32z M1727.41,154V94.73h13.35v10.07h0.69
	c1.24-3.4,3.28-6.04,6.14-7.95c2.85-1.93,6.27-2.89,10.23-2.89c4.01,0,7.4,0.98,10.15,2.93c2.78,1.93,4.73,4.57,5.86,7.91h0.62
	c1.31-3.29,3.52-5.92,6.64-7.87c3.14-1.98,6.85-2.97,11.15-2.97c5.45,0,9.9,1.72,13.35,5.17c3.45,3.45,5.17,8.48,5.17,15.09V154
	h-14.01v-37.62c0-3.68-0.98-6.37-2.93-8.06c-1.96-1.72-4.35-2.58-7.18-2.58c-3.37,0-6.01,1.05-7.91,3.16
	c-1.88,2.08-2.82,4.8-2.82,8.14V154h-13.7v-38.2c0-3.06-0.92-5.5-2.78-7.33c-1.82-1.83-4.22-2.74-7.17-2.74
	c-2.01,0-3.84,0.51-5.48,1.54c-1.65,1-2.96,2.43-3.94,4.28c-0.98,1.83-1.46,3.96-1.46,6.4V154H1727.41z M1851.16,155.16
	c-5.94,0-11.07-1.23-15.39-3.7c-4.3-2.5-7.6-6.02-9.92-10.57c-2.32-4.58-3.47-9.97-3.47-16.17c0-6.1,1.16-11.45,3.47-16.05
	c2.34-4.63,5.61-8.23,9.8-10.8c4.19-2.6,9.12-3.9,14.78-3.9c3.65,0,7.1,0.59,10.34,1.77c3.27,1.16,6.15,2.96,8.64,5.4
	c2.52,2.44,4.5,5.56,5.94,9.34c1.44,3.76,2.16,8.23,2.16,13.43v4.28h-48.57v-9.41h35.19c-0.03-2.68-0.61-5.05-1.74-7.14
	c-1.13-2.11-2.71-3.77-4.75-4.98c-2.01-1.21-4.35-1.81-7.02-1.81c-2.86,0-5.37,0.69-7.53,2.08c-2.16,1.36-3.85,3.16-5.06,5.4
	c-1.18,2.21-1.79,4.64-1.81,7.29v8.22c0,3.45,0.63,6.4,1.89,8.87c1.26,2.44,3.02,4.32,5.28,5.63c2.26,1.29,4.91,1.93,7.95,1.93
	c2.03,0,3.87-0.28,5.52-0.85c1.64-0.59,3.07-1.45,4.28-2.59c1.21-1.13,2.12-2.53,2.74-4.21l13.04,1.47
	c-0.82,3.45-2.39,6.46-4.71,9.03c-2.29,2.55-5.22,4.53-8.79,5.94C1859.85,154.46,1855.76,155.16,1851.16,155.16z M1918.92,94.73
	v10.8h-34.07v-10.8H1918.92z M1893.26,80.54h13.97v55.64c0,1.88,0.28,3.32,0.85,4.32c0.6,0.98,1.37,1.65,2.32,2.01
	c0.95,0.36,2.01,0.54,3.16,0.54c0.88,0,1.67-0.06,2.39-0.19c0.75-0.13,1.31-0.24,1.7-0.35l2.35,10.92c-0.75,0.26-1.81,0.54-3.2,0.85
	c-1.37,0.31-3.04,0.49-5.02,0.54c-3.5,0.1-6.65-0.42-9.45-1.58c-2.8-1.18-5.03-3.01-6.67-5.48c-1.62-2.47-2.42-5.56-2.39-9.26V80.54
	z"/>
</svg>
