<?xml version="1.0" encoding="utf-8"?>
<!-- Generator: Adobe Illustrator 27.3.1, SVG Export Plug-In . SVG Version: 6.00 Build 0)  -->
<svg version="1.1" id="Layer_1" xmlns="http://www.w3.org/2000/svg" xmlns:xlink="http://www.w3.org/1999/xlink" x="0px" y="0px"
	 viewBox="0 0 127 35" style="enable-background:new 0 0 127 35;" xml:space="preserve">
<style type="text/css">
	.st0{fill-rule:evenodd;clip-rule:evenodd;fill:#FFFFFF;}
	.st1{fill:#FFFFFF;}
</style>
<path class="st0" d="M121.97,21.49c-0.08-0.08-0.21-0.08-0.29,0c-1.1,1.03-2.57,1.66-4.2,1.66c-3.39,0-6.14-2.75-6.14-6.14
	c0-3.39,2.75-6.14,6.14-6.14c1.62,0,3.1,0.63,4.2,1.66c0.08,0.08,0.21,0.08,0.29,0l2.61-2.6c0.08-0.08,0.08-0.21,0-0.29
	c-1.84-1.77-4.34-2.86-7.1-2.86c-5.65,0-10.23,4.58-10.23,10.23s4.58,10.23,10.23,10.23c2.76,0,5.26-1.09,7.1-2.87
	c0.08-0.08,0.08-0.21,0-0.29L121.97,21.49z"/>
<path class="st0" d="M99.83,20.78c-1.12,1.44-2.88,2.37-4.85,2.37c-2.73,0-5.04-1.78-5.84-4.24c-0.19-0.6-0.3-1.23-0.3-1.89
	c0-0.66,0.1-1.3,0.3-1.89c0.8-2.46,3.11-4.24,5.84-4.24c2.73,0,5.04,1.78,5.84,4.24c0.04,0.13-0.06,0.26-0.19,0.26H91.5
	c-0.13,0-0.2,0-0.25,0.04c-0.05,0.04-0.07,0.1-0.12,0.21c-0.16,0.43-0.24,0.9-0.24,1.39c0,0.49,0.09,0.95,0.24,1.39
	c0.04,0.12,0.06,0.17,0.12,0.21c0.05,0.04,0.12,0.04,0.25,0.04h13.4c0.1,0,0.19-0.07,0.2-0.17c0.07-0.48,0.1-0.97,0.1-1.46
	c0-5.65-4.58-10.23-10.23-10.23c-5.65,0-10.23,4.58-10.23,10.23s4.58,10.23,10.23,10.23c4.24,0,7.89-2.59,9.43-6.27
	c0.06-0.13-0.04-0.28-0.19-0.28h-4.23C99.93,20.7,99.87,20.73,99.83,20.78z"/>
<path class="st0" d="M79.04,23.18c0.76,0.8,2.06,0.83,3.07,0.5c0.1-0.03,0.21,0.01,0.26,0.1c0.44,0.81,0.95,1.57,1.52,2.28
	c0.08,0.1,0.06,0.24-0.04,0.3c-1.02,0.64-2.31,0.87-3.5,0.87c-1.92,0-3.4-0.49-4.45-1.47c-1.05-1-1.57-2.48-1.57-4.42V10.26
	c0-0.11-0.09-0.2-0.2-0.2h-1.64c-0.11,0-0.2-0.09-0.2-0.2V6.99c0-0.11,0.09-0.2,0.2-0.2h1.64c0.11,0,0.2-0.09,0.2-0.2V2.89
	c0-0.11,0.09-0.2,0.2-0.2h3.68c0.11,0,0.2,0.09,0.2,0.2v3.68c0,0.11,0.09,0.2,0.2,0.2h3.68c0.11,0,0.2,0.09,0.2,0.2v2.86
	c0,0.11-0.09,0.2-0.2,0.2h-3.68c-0.11,0-0.2,0.09-0.2,0.2v10.99C78.42,22.08,78.62,22.73,79.04,23.18z"/>
<path class="st0" d="M65.33,2.69c-0.11,0-0.2,0.09-0.2,0.2v3.68c0,0.11,0.09,0.2,0.2,0.2h3.68c0.11,0,0.2-0.09,0.2-0.2V2.89
	c0-0.11-0.09-0.2-0.2-0.2H65.33z M65.33,10.06c-0.11,0-0.2,0.09-0.2,0.2v16.78c0,0.11,0.09,0.2,0.2,0.2h3.68
	c0.11,0,0.2-0.09,0.2-0.2V10.26c0-0.11-0.09-0.2-0.2-0.2H65.33z"/>
<path class="st0" d="M60.01,14.98c0-6.67-7.53-10.25-12.71-6.96c-0.24,0.16-0.58-0.01-0.58-0.3V7.54c0-0.19-0.16-0.35-0.35-0.35
	h-3.39c-0.19,0-0.35,0.16-0.35,0.35v19.35c0,0.19,0.16,0.35,0.35,0.35h3.39c0.19,0,0.35-0.16,0.35-0.35V15.87
	c0-2.71,2.4-4.91,5.11-4.91c2.26,0,4.09,1.83,4.09,4.09v11.84c0,0.19,0.16,0.35,0.35,0.35h3.39c0.19,0,0.35-0.16,0.35-0.35V14.98z"
	/>
<path class="st1" d="M32.87,10.13c1.01,2.12,1.57,4.5,1.57,7.01c0,8.59-6.62,15.64-15.03,16.32c-0.17,0.01-0.31-0.12-0.31-0.29
	v-3.52c0-0.15,0.12-0.28,0.27-0.29c6.17-0.65,10.98-5.87,10.98-12.21c0-1.78-0.38-3.46-1.06-4.99c-0.06-0.14-0.01-0.3,0.12-0.38
	l3.05-1.76C32.61,9.93,32.8,9.98,32.87,10.13z"/>
<path class="st1" d="M28,9.92c-2.23-3.06-5.85-5.06-9.92-5.06c-4.09,0-7.72,2.01-9.95,5.09c-0.09,0.12-0.26,0.16-0.39,0.09
	L4.69,8.27C4.55,8.19,4.5,8,4.6,7.86c2.95-4.28,7.89-7.09,13.48-7.09c5.58,0,10.5,2.79,13.46,7.06c0.1,0.14,0.05,0.33-0.09,0.41
	L28.39,10C28.26,10.08,28.09,10.04,28,9.92z"/>
<path class="st0" d="M6.73,11.81c0.13,0.08,0.18,0.24,0.12,0.38c-0.67,1.51-1.04,3.19-1.04,4.95c0,6.34,4.81,11.57,10.98,12.21
	c0.15,0.02,0.27,0.14,0.27,0.29v3.52c0,0.17-0.14,0.3-0.31,0.29C8.33,32.78,1.72,25.73,1.72,17.14c0-2.49,0.56-4.85,1.55-6.97
	c0.07-0.15,0.26-0.21,0.4-0.12L6.73,11.81z"/>
</svg>
