<?xml version="1.0" encoding="utf-8"?>
<!-- Generator: Adobe Illustrator 27.3.1, SVG Export Plug-In . SVG Version: 6.00 Build 0)  -->
<svg version="1.1" id="Layer_1" xmlns="http://www.w3.org/2000/svg" xmlns:xlink="http://www.w3.org/1999/xlink" x="0px" y="0px"
	 viewBox="0 0 22 22" style="enable-background:new 0 0 22 22;" xml:space="preserve">
<style type="text/css">
	.st0{fill:#F5F5F5;}
	.st1{fill:none;stroke:#F5F5F5;stroke-width:2.1389;stroke-linecap:round;stroke-linejoin:round;}
</style>
<path class="st0" d="M11.1,1.88v1.01V1.88z M11.1,19.07v1.01V19.07z M20.2,10.98h-1.01H20.2z M3.01,10.98H2H3.01z M17.54,17.42
	l-0.71-0.71L17.54,17.42z M5.38,5.26L4.67,4.55L5.38,5.26z M17.54,4.55l-0.71,0.71L17.54,4.55z M5.38,16.7l-0.71,0.71L5.38,16.7z
	 M15.15,10.98c0,1.07-0.43,2.1-1.18,2.86c-0.76,0.76-1.79,1.18-2.86,1.18c-1.07,0-2.1-0.43-2.86-1.18
	c-0.76-0.76-1.18-1.79-1.18-2.86c0-1.07,0.43-2.1,1.18-2.86C9,7.36,10.03,6.94,11.1,6.94c1.07,0,2.1,0.43,2.86,1.18
	C14.72,8.88,15.15,9.91,15.15,10.98z"/>
<path class="st1" d="M11.1,1.88v1.01 M11.1,19.07v1.01 M20.2,10.98h-1.01 M3.01,10.98H2 M17.54,17.42l-0.71-0.71 M5.38,5.26
	L4.67,4.55 M17.54,4.55l-0.71,0.71 M5.38,16.7l-0.71,0.71 M15.15,10.98c0,1.07-0.43,2.1-1.18,2.86c-0.76,0.76-1.79,1.18-2.86,1.18
	c-1.07,0-2.1-0.43-2.86-1.18c-0.76-0.76-1.18-1.79-1.18-2.86c0-1.07,0.43-2.1,1.18-2.86C9,7.36,10.03,6.94,11.1,6.94
	c1.07,0,2.1,0.43,2.86,1.18C14.72,8.88,15.15,9.91,15.15,10.98z"/>
</svg>
