<?xml version="1.0" encoding="utf-8"?>
<!-- Generator: Adobe Illustrator 27.3.1, SVG Export Plug-In . SVG Version: 6.00 Build 0)  -->
<svg version="1.1" id="Layer_1" xmlns="http://www.w3.org/2000/svg" xmlns:xlink="http://www.w3.org/1999/xlink" x="0px" y="0px"
	 viewBox="0 0 22 22" style="enable-background:new 0 0 22 22;" xml:space="preserve">
<style type="text/css">
	.st0{display:none;fill:none;stroke:#F5F5F5;stroke-width:2.1389;stroke-linecap:round;stroke-linejoin:round;}
	.st1{fill:#123524;}
	.st2{fill:none;stroke:#181818;stroke-width:2.1389;stroke-linecap:round;stroke-linejoin:round;}
</style>
<path class="st0" d="M11.1,1.88v1.01 M11.1,19.07v1.01 M20.2,10.98h-1.01 M3.01,10.98H2 M17.54,17.42l-0.71-0.71 M5.38,5.26
	L4.67,4.55 M17.54,4.55l-0.71,0.71 M5.38,16.7l-0.71,0.71 M15.15,10.98c0,1.07-0.43,2.1-1.18,2.86c-0.76,0.76-1.79,1.18-2.86,1.18
	c-1.07,0-2.1-0.43-2.86-1.18c-0.76-0.76-1.18-1.79-1.18-2.86c0-1.07,0.43-2.1,1.18-2.86C9,7.36,10.03,6.94,11.1,6.94
	c1.07,0,2.1,0.43,2.86,1.18C14.72,8.88,15.15,9.91,15.15,10.98z"/>
<path class="st1" d="M11.9,2v1.03V2z M11.9,19.57v1.03V19.57z M21.2,11.3h-1.03H21.2z M3.63,11.3H2.6H3.63z M18.48,17.88l-0.73-0.73
	L18.48,17.88z M6.05,5.46L5.32,4.72L6.05,5.46z M18.48,4.72l-0.73,0.73L18.48,4.72z M6.05,17.15l-0.73,0.73L6.05,17.15z M16.03,11.3
	c0,1.1-0.44,2.15-1.21,2.92C14.05,15,13,15.44,11.9,15.44c-1.1,0-2.15-0.44-2.92-1.21C8.2,13.45,7.77,12.4,7.77,11.3
	c0-1.1,0.44-2.15,1.21-2.92C9.75,7.6,10.8,7.17,11.9,7.17c1.1,0,2.15,0.44,2.92,1.21C15.6,9.15,16.03,10.21,16.03,11.3z"/>
<path class="st2" d="M10.93,2v1.03 M10.93,19.57v1.03 M20.24,11.3H19.2 M2.66,11.3H1.63 M17.51,17.88l-0.73-0.73 M5.09,5.46
	L4.36,4.72 M17.51,4.72l-0.73,0.73 M5.09,17.15l-0.73,0.73 M15.07,11.3c0,1.1-0.44,2.15-1.21,2.92c-0.78,0.78-1.83,1.21-2.92,1.21
	c-1.1,0-2.15-0.44-2.92-1.21C7.23,13.45,6.8,12.4,6.8,11.3c0-1.1,0.44-2.15,1.21-2.92c0.78-0.78,1.83-1.21,2.92-1.21
	c1.1,0,2.15,0.44,2.92,1.21C14.63,9.15,15.07,10.21,15.07,11.3z"/>
</svg>
